# xmcd CD database file
#
# Track frame offsets:
#	150
#	9059
#	13438
#	23773
#	31881
#	43500
#	47773
#	58199
#	69437
#	80539
#	93235
#	104223
#	115154
#	118966
#	131900
#	147093
#	162872
#	166387
#	180558
#	192676
#	203421
#	214782
#	229320
#	232901
#	242651
#	254874
#	265307
#	277899
#	288479
#	300594
#	314693
#	322766
#	334090
#
# Disc length: 4623 seconds
#
# Revision: 1
# Processed by: cddbd v1.5.2PL0 Copyright (c) Steve Scherf et al.
# Submitted via: CDex 1.70beta2
#
DISCID=e2120d21
DTITLE=TheYardbirds - The BBC Sessions
DYEAR=1999
DGENRE=Blues
TTITLE0=I Ain't Got You■f
TTITLE1=Keith Relf Talks About The Band's Background■f
TTITLE2=For Your Love■f
TTITLE3=I'm Not Talking■f
TTITLE4=I Wish You Would■f
TTITLE5=Keith Relf Says About USA Tour■f
TTITLE6=Heart Full Of Soul■f
TTITLE7=I Ain't Done Wrong■f
TTITLE8=Too Much Monkey Business■f
TTITLE9=Love Me Like I Love You■f
TTITLE10=I'm A Man■f
TTITLE11=Evil Hearted You■f
TTITLE12=Interview About The Still I'm Sad Single■f
TTITLE13=Still I'm Sad■f
TTITLE14=Hang On Sloopy■f
TTITLE15=Smokestack Lightning■f
TTITLE16=The Yardbirds Give Their New Year's Resolution■f
TTITLE17=You're A Better Man Than I■f
TTITLE18=The Train Kept A-Rollin'■f
TTITLE19=Shapes Of Things■f
TTITLE20=Dust My Broom■f
TTITLE21=Baby, Scratch My Back■f
TTITLE22=Keith Relf Talks About His Solo Single■f
TTITLE23=Over Under Sideways Down■f
TTITLE24=The Sun Is Shining■f
TTITLE25=Shape Of Things [Version 2]■f
TTITLE26=Most Likely You Go Your Way (And I'll Go Mine)■f
TTITLE27=Little Games■f
TTITLE28=Drinnking Muddy Water■f
TTITLE29=Think About It■f
TTITLE30=Interview With Jimmy Page■f
TTITLE31=Goodnight Sweet Josephine■f
TTITLE32=My Baby■f
EXTD=YEAR: 1999
EXTT0=
EXTT1=
EXTT2=
EXTT3=
EXTT4=
EXTT5=
EXTT6=
EXTT7=
EXTT8=
EXTT9=
EXTT10=
EXTT11=
EXTT12=
EXTT13=
EXTT14=
EXTT15=
EXTT16=
EXTT17=
EXTT18=
EXTT19=
EXTT20=
EXTT21=
EXTT22=
EXTT23=
EXTT24=
EXTT25=
EXTT26=
EXTT27=
EXTT28=
EXTT29=
EXTT30=
EXTT31=
EXTT32=
PLAYORDER=
